<?xml version="1.0" encoding="UTF-8" ?>
<!DOCTYPE svg PUBLIC "-//W3C//DTD SVG 1.1//EN" "http://www.w3.org/Graphics/SVG/1.1/DTD/svg11.dtd">
<svg width="632pt" height="685pt" viewBox="0 0 632 685" version="1.1" xmlns="http://www.w3.org/2000/svg">
<path fill="#ffffff" d=" M 0.00 0.00 L 632.00 0.00 L 632.00 685.00 L 0.00 685.00 L 0.00 0.00 Z" />
<path fill="#aeb4aa" d=" M 62.83 13.78 C 72.33 7.38 84.72 6.32 95.57 9.41 C 100.94 11.15 106.64 13.41 109.87 18.33 C 101.17 11.92 90.35 7.53 79.39 9.31 C 67.52 10.33 57.24 18.15 50.93 27.92 C 44.67 38.30 44.97 51.23 48.34 62.53 C 44.72 57.67 44.48 51.35 44.58 45.53 C 45.30 32.97 51.61 20.10 62.83 13.78 Z" />
<path fill="#aeb4aa" d=" M 511.61 14.53 C 527.79 2.96 552.28 8.63 563.55 24.46 C 573.35 37.52 573.58 56.78 564.37 70.21 C 565.62 62.95 570.16 56.51 570.03 48.99 C 569.97 42.33 568.10 35.74 565.19 29.77 C 559.25 18.76 547.62 10.68 534.99 10.00 C 526.92 9.31 519.18 12.15 511.61 14.53 Z" />
<path fill="#01a2e8" d=" M 79.39 9.31 C 90.35 7.53 101.17 11.92 109.87 18.33 C 114.89 23.60 120.57 28.23 125.24 33.84 C 128.80 38.24 133.03 42.01 137.33 45.66 C 143.46 50.89 148.20 57.45 153.97 63.03 C 170.34 79.33 186.66 95.68 202.98 112.02 C 206.50 115.51 210.44 118.55 213.93 122.07 C 245.34 153.57 276.85 184.96 308.26 216.46 C 303.01 221.14 298.33 226.40 293.25 231.25 C 288.65 235.70 283.02 238.96 278.70 243.71 C 273.96 248.61 271.27 255.09 269.65 261.62 C 267.81 269.62 270.10 277.75 269.95 285.81 C 265.32 282.59 261.37 278.56 257.54 274.46 C 197.68 214.65 137.88 154.79 78.03 94.97 C 72.84 89.82 67.89 84.41 62.24 79.75 C 56.36 75.20 51.06 69.56 48.34 62.53 C 44.97 51.23 44.67 38.30 50.93 27.92 C 57.24 18.15 67.52 10.33 79.39 9.31 Z" />
<path fill="#fff201" d=" M 511.61 14.53 C 519.18 12.15 526.92 9.31 534.99 10.00 C 547.62 10.68 559.25 18.76 565.19 29.77 C 568.10 35.74 569.97 42.33 570.03 48.99 C 570.16 56.51 565.62 62.95 564.37 70.21 C 563.64 74.23 559.82 76.45 557.26 79.26 C 501.90 134.57 446.60 189.93 391.25 245.24 C 388.25 248.18 385.61 251.57 382.01 253.81 C 379.95 255.11 377.75 256.23 375.96 257.91 C 366.36 267.41 357.09 277.26 347.18 286.44 C 346.97 282.23 346.79 278.00 346.84 273.78 C 346.95 270.92 347.07 268.06 347.00 265.20 C 347.07 261.25 346.86 256.98 344.03 253.92 C 341.46 250.54 338.22 247.76 335.26 244.74 C 326.32 235.78 317.20 227.00 308.53 217.78 C 313.76 211.59 320.13 206.47 325.17 200.12 C 385.75 139.07 446.85 78.49 507.52 17.51 C 508.75 16.36 510.02 15.17 511.61 14.53 Z" />
<path fill="#020202" d=" M 62.24 79.75 C 67.89 84.41 72.84 89.82 78.03 94.97 C 137.88 154.79 197.68 214.65 257.54 274.46 C 261.37 278.56 265.32 282.59 269.95 285.81 C 270.10 277.75 267.81 269.62 269.65 261.62 C 271.27 255.09 273.96 248.61 278.70 243.71 C 283.02 238.96 288.65 235.70 293.25 231.25 C 298.33 226.40 303.01 221.14 308.26 216.46 C 314.24 211.38 319.43 205.46 325.17 200.12 C 320.13 206.47 313.76 211.59 308.53 217.78 C 317.20 227.00 326.32 235.78 335.26 244.74 C 338.22 247.76 341.46 250.54 344.03 253.92 C 345.27 257.60 346.29 261.37 347.00 265.20 C 347.07 268.06 346.95 270.92 346.84 273.78 C 346.47 278.43 346.43 283.09 346.49 287.76 C 341.08 291.89 336.17 296.59 331.18 301.20 C 316.77 312.78 293.72 311.56 280.80 298.23 C 277.32 294.30 273.75 290.45 269.96 286.82 C 269.94 382.54 269.96 478.27 269.95 574.00 C 269.97 579.32 269.67 584.65 270.05 589.96 C 270.42 595.63 272.58 600.99 275.02 606.06 C 271.85 600.94 269.42 595.15 269.45 589.04 C 269.51 489.68 269.43 390.30 269.49 290.94 C 269.53 288.91 269.26 286.75 267.68 285.31 C 207.64 225.36 147.68 165.32 87.67 105.33 C 79.22 96.78 70.55 88.44 62.24 79.75 Z" />
<path fill="#ffffff" d=" M 344.03 253.92 C 346.86 256.98 347.07 261.25 347.00 265.20 C 346.29 261.37 345.27 257.60 344.03 253.92 Z" />
<path fill="#ec1d25" d=" M 269.96 286.82 C 273.75 290.45 277.32 294.30 280.80 298.23 C 293.72 311.56 316.77 312.78 331.18 301.20 C 336.17 296.59 341.08 291.89 346.49 287.76 C 346.63 387.51 346.45 487.27 346.58 587.03 C 346.54 590.75 345.95 594.51 344.59 597.99 C 341.75 604.57 337.72 610.68 332.53 615.65 C 326.11 620.76 318.07 623.83 309.92 624.61 C 296.06 625.23 282.65 617.34 275.02 606.06 C 272.58 600.99 270.42 595.63 270.05 589.96 C 269.67 584.65 269.97 579.32 269.95 574.00 C 269.96 478.27 269.94 382.54 269.96 286.82 Z" />
<path fill="#020202" d=" M 344.59 597.99 C 342.85 605.12 338.08 611.04 332.53 615.65 C 337.72 610.68 341.75 604.57 344.59 597.99 Z" />
</svg>
